<?xml version="1.0" ?><!DOCTYPE svg  PUBLIC '-//W3C//DTD SVG 1.1//EN'  'http://www.w3.org/Graphics/SVG/1.1/DTD/svg11.dtd'><svg
style="transform: rotateZ(90deg);"
 enable-background="new 0 0 50 50" id="Layer_1" version="1.1" viewBox="0 0 50 50" xml:space="preserve" xmlns="http://www.w3.org/2000/svg" xmlns:xlink="http://www.w3.org/1999/xlink"><g><path d="M34.7,37c0,0.8-0.4,5.4-0.7,8.1c0,0,0,0,0,0c-0.1,1-0.2,1.7-0.3,1.8c0,0-0.1,0.1-0.1,0.2c0,0,0,0,0,0   c-0.6,0.6-2.6,2.3-8.6,1.9c-6.6,0.5-8.4-1.6-8.8-2c0,0,0-0.1-0.1-0.2c-0.1-0.3-0.2-0.8-0.3-1.6C14.8,36.7,15,15,15,14.9   c0-0.3-0.8-7.6,1.7-10.9C19.8,0,30.1,0,33.2,4C35.7,7.4,34.7,11.4,34.7,37z" fill="#CECECE"/><g opacity="0.1"><path d="M33.4,14.1H16.3c0.2-0.9-0.2-3.2,2.8-10.6c0.9-2.3,3.5-1,9.1-1.4c0.9,0,1.7,0.5,2.1,1.4    C32.8,9.6,33.1,12.6,33.4,14.1z M16.5,14h16.8c-0.5-3.1-1.5-6.5-3.1-10.4c-0.3-0.8-1.1-1.3-1.9-1.3c-5.6,0.3-8.1-0.9-9,1.3    C17.7,7.4,16.7,10.5,16.5,14z" fill="#4E4E4E"/></g><path d="M33.8,14.2l-1.3,8.5H17.7l-1.4-8.5c0-1.1,1.2-1.8,2.9-2.4c2.5-0.8,6.2-0.9,9.3-0.5c0.4,0.1,0.9,0.1,1.3,0.2   c1.1,0.2,2.1,0.5,2.8,1C33.3,13,33.8,13.5,33.8,14.2z" fill="#444444"/><path d="M30.7,29c0,0.6-0.5,1.2-1.2,1.2h-8.6c-0.6,0-1.2-0.5-1.2-1.2c0.2-1.7-0.7-4.3,1.2-4.3h8.6   C31.3,24.7,30.5,27.4,30.7,29z" fill="#444444"/><g opacity="0.1"><rect fill="#4E4E4E" height="0.1" transform="matrix(0.1091 0.994 -0.994 0.1091 49.5462 10.6527)" width="20.7" x="8.5" y="32.9"/></g><g opacity="0.1"><rect fill="#4E4E4E" height="20.7" transform="matrix(0.994 0.1094 -0.1094 0.994 3.7933 -3.2285)" width="0.1" x="31.3" y="22.6"/></g><path d="M15.9,15.9c0,0-0.6,13.1,0.5,20.2c1.1,7,1,7.4,1.3,7.2s1-1.2,0.6-3.3s-0.7-14.6-1-15.8   C17.1,22.9,15.9,15.9,15.9,15.9z" fill="#444444"/><path d="M17.8,31.7l0.1,1.3C16.4,29.4,14.1,30.7,17.8,31.7z" fill="#333333" opacity="0.5"/><g opacity="0.1"><path d="M17.8,32.4l0,0.1C14,31,14.8,31.2,17.8,32.4z" fill="#4E4E4E"/></g><path d="M34.3,15.9c0,0,0.6,13.1-0.5,20.2c-1.1,7-1,7.4-1.3,7.2s-1-1.2-0.6-3.3s0.7-14.6,1-15.8   C33,22.9,34.3,15.9,34.3,15.9z" fill="#444444"/><path d="M34.2,30.5c0,0-1.4,1-1.9,1.2L32.3,33c0,0,1.6-0.6,1.9-1L34.2,30.5z" fill="#333333" opacity="0.5"/><g opacity="0.1"><path d="M32.3,32.6l0-0.1c0.1,0,0.1,0.2,1.9-0.8l0.5,0l0,0.1l-0.5,0C32.7,32.6,32.4,32.5,32.3,32.6z" fill="#4E4E4E"/></g><g><path d="M34.6,7.9l-3.3-4.2C32.7,3.5,34.3,6.1,34.6,7.9z" fill="#D73149"/></g><g><path d="M15.2,7.9l3.3-4.2C17.2,3.5,15.6,6.1,15.2,7.9z" fill="#D73149"/></g><g><rect fill="#4E4E4E" height="0.8" transform="matrix(-0.9661 -0.2582 0.2582 -0.9661 62.7394 47.0904)" width="1.1" x="33.9" y="19"/><g><path d="M34.7,20.4l2.5,0.7c0.6,0.2,0.4-1.4-0.7-1.7c-1-0.2-1.6-0.6-1.7-0.2C34.7,19.2,34.3,20.3,34.7,20.4z" fill="#C5C5C5"/><path d="M34.5,20L34.5,20c-0.1,0.5,0.6,0.3,2.6,1c0.1,0,0.3-0.1,0.3-0.2C36.5,20.6,34.3,20,34.5,20z" fill="#4E4E4E"/></g></g><g><rect fill="#4E4E4E" height="0.8" transform="matrix(0.9661 -0.2582 0.2582 0.9661 -4.4888 4.6692)" width="1.1" x="15" y="19"/><g><path d="M15.5,20c0.1,0.5-0.6,0.3-2.6,1c-0.2,0-0.3-0.1-0.3-0.3c0-1.5,1.6-1.5,2.4-1.8     C15.4,18.9,15.3,19.5,15.5,20z" fill="#C5C5C5"/><path d="M15.5,20L15.5,20c0.1,0.5-0.6,0.3-2.6,1c-0.1,0-0.3-0.1-0.3-0.2C13.5,20.6,15.7,20,15.5,20z" fill="#4E4E4E"/></g></g><path d="M31.7,46.5c0,0.1-1.2,1.2-1.2,1.2c-2.8,0.5-8.4,1.5-10.8-0.2c-2.9-2-1.2-1.9-1.1-2c0.1-0.1,1-0.7,1-0.7   c0.1,0,6.4,1.9,11.1,0l0.8,0.4C31.4,45.2,31.7,46.4,31.7,46.5z" fill="#444444"/><path d="M19.5,44.8c0,0,2.9,0.9,6.1,0.9l-0.2,2.7c-2.2,0.1-4.5,0-5.8-0.9c-2.9-2-1.2-1.9-1.1-2   C18.6,45.4,19.5,44.8,19.5,44.8z" fill="#FFFFFF" opacity="0.1"/><path d="M29.9,45l-0.2,2.8c-0.7,0.1-1.7,0.3-2.9,0.4l0.2-2.7C27.9,45.5,28.9,45.4,29.9,45z" fill="#FFFFFF" opacity="0.1"/><path d="M20,47.5l-0.2,0.8c0,0-2.2-0.2-3.7-1.5c-0.1-0.3-0.2-0.8-0.3-1.6c0.1-0.1,0.3-0.1,0.5-0.1   c0.3,0.2,1.2,0.4,1.5,0.1c0.3-0.3,0.8-2.3,1.7-2.3h0.3l0,0.3c0,0-0.7,0-0.9,0.9l0.5,0.6c0,0-0.9,1.8-0.4,2.2   C19.7,47.4,20,47.5,20,47.5z" fill="#D73149"/><path d="M34,45.1c-0.1,1-0.2,1.7-0.3,1.8c0,0-0.1,0.1-0.1,0.2c0,0,0,0,0,0c-1.5,1-3.3,1.2-3.3,1.2l-0.2-0.8   c0,0,0.3-0.1,0.9-0.5c0.5-0.5-0.4-2.2-0.4-2.2l0.5-0.6c-0.2-0.9-0.9-0.9-0.9-0.9l0-0.3h0.3c0.9,0,1.3,2,1.7,2.3   c0.3,0.3,1.2,0.1,1.5-0.1C33.9,45.1,33.9,45.1,34,45.1z" fill="#D73149"/><path d="M25.2,40.5c0,1.7-0.6,1.7-0.6,0C24.6,38.8,25.2,38.8,25.2,40.5z" fill="#4E4E4E" opacity="0.1"/><path d="M28.4,11.4l-0.9,11.3h-9.3l0.9-10.8C21.7,11.1,25.4,10.9,28.4,11.4z" fill="#FFFFFF" opacity="0.1"/><path d="M32.5,12.5l-0.8,10.2h-2.9l0.9-11.1C30.8,11.8,31.8,12.1,32.5,12.5z" fill="#FFFFFF" opacity="0.1"/></g></svg>